HIERARCHY
ROOT Hips
{
	OFFSET 0.000000 0.000000 0.000000 
	CHANNELS 6 Xposition Yposition Zposition Zrotation Yrotation Xrotation
	JOINT LeftUpLeg
	{
		OFFSET 1.363060 -1.794630 0.839290 
		CHANNELS 3 Zrotation Yrotation Xrotation
		JOINT LeftLeg
		{
			OFFSET 2.448110 -6.726130 0.000000 
			CHANNELS 3 Zrotation Yrotation Xrotation
			JOINT LeftFoot
			{
				OFFSET 2.562200 -7.039590 0.000000 
				CHANNELS 3 Zrotation Yrotation Xrotation
				JOINT LeftToeBase
				{
					OFFSET 0.157640 -0.433110 2.322550 
					CHANNELS 3 Zrotation Yrotation Xrotation
					End Site
					{
						OFFSET 0.000000 0.000000 0.000000 
					}
				}
			}
		}
	}
	JOINT RightUpLeg
	{
		OFFSET -1.305520 -1.794630 0.839290 
		CHANNELS 3 Zrotation Yrotation Xrotation
		JOINT RightLeg
		{
			OFFSET -2.542530 -6.985550 0.000000 
			CHANNELS 3 Zrotation Yrotation Xrotation
			JOINT RightFoot
			{
				OFFSET -2.568260 -7.056230 0.000000 
				CHANNELS 3 Zrotation Yrotation Xrotation
				JOINT RightToeBase
				{
					OFFSET -0.164730 -0.452590 2.363150 
					CHANNELS 3 Zrotation Yrotation Xrotation
					End Site
					{
						OFFSET 0.000000 0.000000 0.000000 
					}
				}
			}
		}
	}
	JOINT Spine
	{
		OFFSET 0.028270 2.035590 -0.193380 
		CHANNELS 3 Zrotation Yrotation Xrotation
		JOINT Spine1
		{
			OFFSET 0.056720 2.048850 -0.042750 
			CHANNELS 3 Zrotation Yrotation Xrotation
			JOINT Neck1
			{
				OFFSET -0.054170 1.746240 0.172020 
				CHANNELS 3 Zrotation Yrotation Xrotation
				JOINT Head
				{
					OFFSET 0.104070 1.761360 -0.123970 
					CHANNELS 3 Zrotation Yrotation Xrotation
					End Site
					{
						OFFSET 0.000000 0.000000 0.000000 
					}
				}
			}
			JOINT LeftArm
			{
				OFFSET 3.362410 1.200890 -0.311210 
				CHANNELS 3 Zrotation Yrotation Xrotation
				JOINT LeftForeArm
				{
					OFFSET 4.983000 -0.000000 -0.000000 
					CHANNELS 3 Zrotation Yrotation Xrotation
					JOINT LeftHand
					{
						OFFSET 3.483560 -0.000000 -0.000000 
						CHANNELS 3 Zrotation Yrotation Xrotation
						JOINT LeftHandIndex1
						{
							OFFSET 0.715260 -0.000000 -0.000000 
							CHANNELS 3 Zrotation Yrotation Xrotation
							End Site
							{
								OFFSET 0.000000 0.000000 0.000000 
							}
						}
					}
				}
			}
			JOINT RightArm
			{
				OFFSET -3.136600 1.374050 -0.404650 
				CHANNELS 3 Zrotation Yrotation Xrotation
				JOINT RightForeArm
				{
					OFFSET -5.241900 -0.000000 -0.000000 
					CHANNELS 3 Zrotation Yrotation Xrotation
					JOINT RightHand
					{
						OFFSET -3.444170 -0.000000 -0.000000 
						CHANNELS 3 Zrotation Yrotation Xrotation
						JOINT RightHandIndex1
						{
							OFFSET -0.622530 -0.000000 -0.000000 
							CHANNELS 3 Zrotation Yrotation Xrotation
							End Site
							{
								OFFSET 0.000000 0.000000 0.000000 
							}
						}
					}
				}
			}
		}
	}
}
MOTION
Frames: 15
Frame Time: 0.041667
0.331479 17.794645 3.219440 -1.884633 -4.322413 6.958929 -13.106874 2.903595 -16.386317 0.723074 8.559110 23.968840 -2.574409 12.876263 -8.039294 0.168100 2.641700 7.282800 16.713575 1.749902 -17.230346 -1.559968 -9.795176 27.784887 -0.199525 -1.593658 -8.700484 -0.391000 -4.015000 11.118800 1.188333 -1.898468 -2.779168 0.976235 -1.161752 7.940929 9.541720 -13.992709 12.498978 2.461300 -6.537400 4.437800 -23.758197 -2.853744 -33.090175 7.992582 -18.713210 -2.517254 -0.916297 -0.607665 1.663349 -7.125000 0.000000 0.000000 17.731150 4.117125 -48.652396 -7.600165 16.904316 -2.477929 1.441101 1.914560 41.964629 7.125000 0.000000 0.000000 
0.329852 17.794239 3.218627 -1.864506 -4.318993 6.937758 -13.120634 2.909987 -16.367592 0.722097 8.556673 23.962495 -2.569909 12.857939 -8.022074 0.167100 2.633400 7.259600 16.697392 1.758440 -17.214913 -1.563148 -9.799452 27.799884 -0.198208 -1.603419 -8.713563 -0.392900 -4.024800 11.146600 1.186878 -1.892225 -2.781984 0.991680 -1.162081 7.928075 9.498277 -13.983087 12.577616 2.433200 -6.528700 4.481600 -23.759218 -2.880564 -33.069453 8.008988 -18.734371 -2.522510 -0.916740 -0.611887 1.606415 -7.125000 0.000000 0.000000 17.751553 4.093026 -48.561056 -7.611690 16.924275 -2.480814 1.447377 1.917713 41.897869 7.125000 0.000000 0.000000 
0.329852 17.794645 3.220152 -1.836939 -4.309973 6.951188 -13.153232 2.909039 -16.372680 0.720793 8.556537 23.961225 -2.562591 12.833696 -8.036873 0.170700 2.661900 7.338700 16.665081 1.706467 -17.240574 -1.563457 -9.799213 27.799525 -0.204753 -1.567093 -8.699980 -0.385700 -3.988100 11.043100 1.179898 -1.885487 -2.776845 0.973673 -1.158607 7.967396 9.531228 -13.963836 12.573039 2.448300 -6.517600 4.483400 -23.734555 -2.950380 -33.169662 8.002172 -18.716420 -2.518501 -0.917643 -0.604843 1.690088 -7.125000 0.000000 0.000000 17.780688 4.066758 -48.505484 -7.618738 16.947039 -2.487798 1.437499 1.917774 41.813576 7.125000 0.000000 0.000000 
0.328124 17.794442 3.219339 -1.865069 -4.320242 6.949637 -13.115368 2.913478 -16.377752 0.721754 8.555769 23.958680 -2.573055 12.868304 -8.008979 0.165700 2.622200 7.228700 16.701381 1.775092 -17.220678 -1.563029 -9.800302 27.800876 -0.196818 -1.610910 -8.714047 -0.389200 -4.006200 11.094100 1.182248 -1.869199 -2.780400 0.987011 -1.149994 7.935006 9.549368 -13.933481 12.574731 2.459800 -6.502900 4.477500 -23.703709 -2.886597 -32.967409 7.990498 -18.710137 -2.525207 -0.904998 -0.568221 1.700783 -7.125000 0.000000 0.000000 17.781284 4.062432 -48.593557 -7.610804 16.926827 -2.483955 1.435384 1.912018 41.909783 7.125000 0.000000 0.000000 
0.327921 17.794544 3.220558 -1.867697 -4.302756 6.959660 -13.112657 2.895181 -16.374438 0.720689 8.554809 23.955246 -2.572158 12.865582 -8.016748 0.165500 2.620600 7.224100 16.706979 1.685019 -17.252283 -1.563839 -9.800407 27.802727 -0.206223 -1.558558 -8.698312 -0.383300 -3.976100 11.009400 1.179590 -1.862263 -2.778221 0.969254 -1.146169 7.962107 9.537961 -13.908079 12.620803 2.447600 -6.486600 4.501900 -23.693123 -2.937082 -32.942898 7.995293 -18.716780 -2.526551 -0.904127 -0.566942 1.720627 -7.125000 0.000000 0.000000 17.810486 4.036648 -48.552706 -7.615027 16.938626 -2.485879 1.438692 1.912240 41.840173 7.125000 0.000000 0.000000 
0.326193 17.794950 3.219847 -1.873833 -4.295849 6.963018 -13.096880 2.893342 -16.383954 0.720653 8.555032 23.956052 -2.566482 12.842536 -8.013275 0.171900 2.670800 7.363500 16.720792 1.752699 -17.235798 -1.562922 -9.800383 27.800860 -0.196623 -1.614322 -8.723396 -0.391200 -4.016000 11.121800 1.178602 -1.853061 -2.778927 0.970717 -1.142450 7.960904 9.532036 -13.884741 12.647558 2.440600 -6.473100 4.512500 -23.681199 -3.017972 -33.072730 7.980567 -18.679775 -2.517992 -0.905868 -0.558488 1.851243 -7.125000 0.000000 0.000000 17.838700 4.035447 -48.655416 -7.614944 16.930782 -2.486406 1.433209 1.899071 41.944670 7.125000 0.000000 0.000000 
0.325685 17.794544 3.220863 -1.859403 -4.290621 6.957630 -13.112055 2.893982 -16.380563 0.721118 8.556285 23.959392 -2.567207 12.846223 -8.012424 0.168600 2.645600 7.293500 16.706154 1.698865 -17.243447 -1.563658 -9.799639 27.801518 -0.204710 -1.572130 -8.720636 -0.390700 -4.013600 11.115000 1.174979 -1.837269 -2.780271 0.968672 -1.135549 7.960904 9.543035 -13.833278 12.710619 2.446400 -6.444500 4.541500 -23.681128 -3.061036 -33.030978 7.983194 -18.682463 -2.518194 -0.906718 -0.552863 1.859312 -7.125000 0.000000 0.000000 17.857468 3.986311 -48.587649 -7.617987 16.941758 -2.488491 1.431651 1.903102 41.833703 7.125000 0.000000 0.000000 
0.324872 17.793934 3.220762 -1.864896 -4.283352 6.948367 -13.105319 2.900791 -16.374135 0.722013 8.557471 23.962883 -2.567208 12.845119 -8.003743 0.167800 2.639400 7.276300 16.711343 1.690447 -17.233599 -1.563674 -9.799302 27.801284 -0.209529 -1.547135 -8.720560 -0.399700 -4.059200 11.243200 1.173218 -1.833431 -2.776768 0.956116 -1.133550 7.977085 9.519247 -13.815685 12.716091 2.421000 -6.432600 4.541700 -23.663841 -3.111937 -33.063421 7.970782 -18.658314 -2.512174 -0.907131 -0.546313 1.884295 -7.125000 0.000000 0.000000 17.892328 3.992623 -48.653282 -7.628040 16.954348 -2.494535 1.419970 1.898696 41.841111 7.125000 0.000000 0.000000 
0.323448 17.794239 3.220558 -1.867641 -4.273868 6.954118 -13.095924 2.905602 -16.384591 0.722322 8.558305 23.965077 -2.562058 12.823544 -7.992720 0.169500 2.652300 7.312300 16.721270 1.686479 -17.238626 -1.563681 -9.799288 27.801307 -0.208018 -1.554105 -8.718656 -0.395100 -4.036100 11.178300 1.173438 -1.824890 -2.777335 0.960127 -1.130747 7.979293 9.527490 -13.782992 12.734586 2.420500 -6.414400 4.546700 -23.686631 -3.237025 -33.421628 7.959730 -18.611787 -2.504206 -0.905814 -0.534264 2.248698 -7.125000 0.000000 0.000000 17.916262 3.976718 -48.616949 -7.633988 16.964936 -2.495316 1.420871 1.907100 41.721160 7.125000 0.000000 0.000000 
0.322330 17.794239 3.219847 -1.876702 -4.248894 6.948257 -13.079352 2.897736 -16.376386 0.722301 8.558137 23.965498 -2.556461 12.801054 -7.988927 0.170800 2.662600 7.340700 16.739043 1.687465 -17.227766 -1.563806 -9.799500 27.802093 -0.203186 -1.583105 -8.735255 -0.391400 -4.017300 11.125400 1.173138 -1.823789 -2.775206 0.959865 -1.129734 7.985942 9.536427 -13.737819 12.738551 2.422700 -6.390500 4.544900 -23.665964 -3.240580 -33.142996 7.960097 -18.631089 -2.504358 -0.903526 -0.557886 1.941748 -7.125000 0.000000 0.000000 17.950542 4.015087 -48.754557 -7.630800 16.945347 -2.487638 1.435888 1.906361 41.802152 7.125000 0.000000 0.000000 
0.321212 17.793934 3.220558 -1.865392 -4.237884 6.937031 -13.089558 2.916552 -16.373701 0.723190 8.559648 23.969641 -2.553589 12.789718 -7.980070 0.166800 2.631000 7.253200 16.730442 1.672528 -17.214893 -1.564345 -9.799051 27.802924 -0.205220 -1.573628 -8.740011 -0.400800 -4.064700 11.258800 1.171497 -1.811504 -2.771588 0.959302 -1.125416 7.999095 9.540150 -13.697641 12.737326 2.418900 -6.368900 4.538500 -23.694471 -3.370598 -33.467670 7.950427 -18.589441 -2.499318 -0.899990 -0.531571 2.239948 -7.125000 0.000000 0.000000 17.981724 3.967961 -48.707821 -7.639602 16.967294 -2.494203 1.421063 1.911013 41.868779 7.125000 0.000000 0.000000 
0.320907 17.794035 3.220355 -1.849239 -4.223380 6.936040 -13.105768 2.895807 -16.364546 0.721543 8.557452 23.962440 -2.556020 12.799757 -7.977091 0.166600 2.629500 7.248800 16.713234 1.601321 -17.243689 -1.566624 -9.801495 27.811921 -0.214592 -1.520028 -8.718227 -0.400900 -4.065100 11.259800 1.168427 -1.810023 -2.773789 0.957210 -1.125214 7.994539 9.536709 -13.652485 12.774492 2.409700 -6.342700 4.557600 -23.666332 -3.379744 -33.207694 7.937847 -18.583125 -2.491940 -0.905934 -0.540698 1.970073 -7.125000 0.000000 0.000000 18.003260 3.992572 -48.729620 -7.627212 16.941104 -2.484270 1.431880 1.916464 41.844840 7.125000 0.000000 0.000000 
0.319281 17.794137 3.220254 -1.880232 -4.217163 6.925616 -13.063197 2.889251 -16.349328 0.721921 8.556726 23.962189 -2.553102 12.787993 -7.990432 0.172600 2.676200 7.378500 16.756106 1.650288 -17.209741 -1.567109 -9.802895 27.816653 -0.207957 -1.563101 -8.755679 -0.394400 -4.032500 11.168100 1.171402 -1.801998 -2.775370 0.959421 -1.121096 7.980717 9.546234 -13.605050 12.776072 2.417000 -6.319700 4.545000 -23.692166 -3.494614 -33.498882 7.926339 -18.540856 -2.486855 -0.897323 -0.528413 2.319475 -7.125000 0.000000 0.000000 18.033379 3.983420 -48.741416 -7.625714 16.936773 -2.481770 1.430214 1.921434 41.902845 7.125000 0.000000 0.000000 
0.318569 17.793832 3.220762 -1.825770 -4.187730 6.907968 -13.120206 2.904160 -16.344533 0.721020 8.556752 23.961390 -2.544669 12.756407 -7.968836 0.168300 2.643200 7.287000 16.698467 1.598535 -17.207897 -1.569470 -9.804195 27.823922 -0.210932 -1.548309 -8.755689 -0.399100 -4.055800 11.233800 1.163355 -1.808837 -2.771657 0.952224 -1.126423 7.998054 9.548223 -13.564307 12.829810 2.408300 -6.293700 4.581500 -23.694819 -3.499349 -33.363368 7.939211 -18.568163 -2.492933 -0.893237 -0.533892 2.211111 -7.125000 0.000000 0.000000 18.080604 4.014071 -48.794455 -7.627506 16.934805 -2.482026 1.425437 1.916796 41.944743 7.125000 0.000000 0.000000 
0.317654 17.793527 3.220457 -1.866095 -4.186214 6.908949 -13.073085 2.904026 -16.349186 0.722362 8.557721 23.964832 -2.547049 12.762511 -7.964949 0.166400 2.627700 7.243800 16.746739 1.590540 -17.213766 -1.569532 -9.804790 27.825671 -0.213165 -1.535039 -8.749404 -0.392900 -4.025000 11.147100 1.165069 -1.787119 -2.774560 0.940452 -1.114341 7.984289 9.527573 -13.522738 12.859794 2.395500 -6.271400 4.590300 -23.696103 -3.576153 -33.297945 7.931659 -18.554634 -2.488106 -0.892030 -0.533356 2.234523 -7.125000 0.000000 0.000000 18.107711 3.947646 -48.673767 -7.619960 16.937394 -2.484313 1.416505 1.900744 41.892872 7.125000 0.000000 0.000000 
